<svg xmlns="http://www.w3.org/2000/svg" data-name="Layer 1" width="913.214" height="482.652" viewBox="0 0 913.214 482.652" class="featureSvg__8YW" alt="[object Object]"><path d="M798.64 422.89a554.592 554.592 0 0 1-71.262-5.229c-.83-.114-1.66-.24-2.488-.354l1.247-223.276a91.8 91.8 0 0 1 2.5-1.926 106.152 106.152 0 0 1 8.634-5.832c14.308-8.62 31.06-12.567 42.618-8.612l.18.07a20.281 20.281 0 0 1 6.878 3.959c10.15 9.017 8.458 27.248.265 43.792 16.244-14.839 36.74-26.655 55.035-27.553 17.845-.88 30.593 8.451 41.427 18.572.358.332.706.664 1.054.996.18.161.349.332.528.493 8.256 7.896 16.394 17.102 15.41 30.427-1.082 14.613-13.322 30.816-27.586 42.176-14.254 11.36-30.446 18.91-46.25 26.562-15.792 7.662-31.989 15.951-45.488 28.246 21.064-16.652 45.029-30.079 68.337-35.038s45.694-.595 56.671 14.246a34.713 34.713 0 0 1 6.135 15.205c.107.64.193 1.29.27 1.951 1.563 13.74-3.189 30.143-14.547 44.1-12.506 15.37-31.046 26.027-48.646 31.329-17.6 5.301-34.543 5.866-50.923 5.695Z" fill="#f2f2f2"></path><path d="m725.675 276.809.023-4.27q1.272-2.033 2.513-4.086c.535-.847 1.05-1.704 1.575-2.561q12.974-21.243 24.889-42.751 11.925-21.49 22.752-43.194a1.79 1.79 0 0 1 2.045-1.029.516.516 0 0 1 .15.071c.379.202.536.653.213 1.312-.89 1.774-1.78 3.56-2.69 5.334q-11.012 21.764-23.123 43.342-12.105 21.562-25.28 42.88c-.181.298-.373.597-.555.896-.837 1.355-1.675 2.7-2.512 4.056ZM725.367 331.858l.015-2.64c.833-.595 1.666-1.18 2.5-1.776q29.427-20.985 58.855-41.962 48.178-34.351 96.355-68.682a1.7 1.7 0 0 1 .582-.297c.711-.196 1.128.327 1.055.996a2.006 2.006 0 0 1-.888 1.395q-27.018 19.26-54.016 38.509-47.937 34.173-95.864 68.336c-2.028 1.448-4.066 2.897-6.094 4.345-.833.596-1.667 1.191-2.5 1.776ZM740.699 390.675c-4.45-.135-8.828-.43-13.166-.814l-2.489-.224.016-2.77c.83.085 1.659.17 2.488.244 6.267.586 12.605 1 19.115 1.057a266.656 266.656 0 0 0 53.75-5.25 334.666 334.666 0 0 0 55.842-16.258 383.494 383.494 0 0 0 55.25-26.601 1.476 1.476 0 0 1 .98-.245c.79.114 1.024 1.166.27 1.951a2.293 2.293 0 0 1-.503.398q-3.295 1.916-6.61 3.763a383.226 383.226 0 0 1-55.444 25.46 333.08 333.08 0 0 1-55.926 15.158 263.074 263.074 0 0 1-53.573 4.131Z" fill="#fff"></path><path d="M718.704 0h-607a8.728 8.728 0 0 0-8.72 8.72v411.32a8.728 8.728 0 0 0 8.72 8.72h607a8.712 8.712 0 0 0 6.63-3.06 2.046 2.046 0 0 0 .19-.24 8.167 8.167 0 0 0 1.25-2.11 8.507 8.507 0 0 0 .66-3.31V8.72a8.73 8.73 0 0 0-8.73-8.72Zm6.24 420.04a6.175 6.175 0 0 1-1.03 3.42 6.446 6.446 0 0 1-2.36 2.12 6.184 6.184 0 0 1-2.85.69h-607a6.238 6.238 0 0 1-6.23-6.23V8.72a6.238 6.238 0 0 1 6.23-6.23h607a6.24 6.24 0 0 1 6.24 6.23Z" fill="#3f3d56"></path><path fill="#3f3d56" d="M104.226 34.949h621.957v2.493H104.226z"></path><circle cx="125.415" cy="18.696" r="7.478" fill="#3f3d56"></circle><circle cx="146.916" cy="18.696" r="7.478" fill="#3f3d56"></circle><circle cx="168.416" cy="18.696" r="7.478" fill="#3f3d56"></circle><path d="M571.303 92.652h-312a13 13 0 0 1 0-26h312a13 13 0 0 1 0 26Zm-312-24a11 11 0 0 0 0 22h312a11 11 0 0 0 0-22Z" fill="#3f3d56"></path><path d="M261.91 172.152h-28a8 8 0 0 1 0-16h28a8 8 0 0 1 0 16ZM294.91 199.152h-61a8 8 0 0 1 0-16h61a8 8 0 0 1 0 16ZM266.91 290.152h-28a8 8 0 0 1 0-16h28a8 8 0 0 1 0 16ZM299.91 317.152h-61a8 8 0 0 1 0-16h61a8 8 0 1 1 0 16ZM450.91 287.152h-28a8 8 0 0 1 0-16h28a8 8 0 0 1 0 16ZM483.91 314.152h-61a8 8 0 1 1 0-16h61a8 8 0 1 1 0 16ZM447.91 177.152h-28a8 8 0 0 1 0-16h28a8 8 0 0 1 0 16ZM480.91 204.152h-61a8 8 0 0 1 0-16h61a8 8 0 0 1 0 16ZM634.91 171.152h-28a8 8 0 0 1 0-16h28a8 8 0 0 1 0 16ZM667.91 198.152h-61a8 8 0 0 1 0-16h61a8 8 0 0 1 0 16Z" fill="#ccc"></path><circle cx="184.508" cy="177.652" r="30" fill="#337bcf"></circle><path d="M198.508 191.152h-28a3.003 3.003 0 0 1-3-3v-21a3.003 3.003 0 0 1 3-3h7.882a2.981 2.981 0 0 1 2.555 1.427l2.199 3.573h15.364a3.003 3.003 0 0 1 3 3v16a3.003 3.003 0 0 1-3 3Zm-28-25a1.001 1.001 0 0 0-1 1v21a1.001 1.001 0 0 0 1 1h28a1.001 1.001 0 0 0 1-1v-16a1.001 1.001 0 0 0-1-1h-16.482l-2.784-4.524a.994.994 0 0 0-.852-.476Z" fill="#fff"></path><circle cx="368.508" cy="182.652" r="30" fill="#337bcf"></circle><path d="M381.508 201.652h-26a3.003 3.003 0 0 1-3-3v-32a3.003 3.003 0 0 1 3-3h18.84a3.007 3.007 0 0 1 1.879.662l7.16 5.754a2.984 2.984 0 0 1 1.12 2.338v26.246a3.003 3.003 0 0 1-3 3Zm-26-36a1.001 1.001 0 0 0-1 1v32a1.001 1.001 0 0 0 1 1h26a1.001 1.001 0 0 0 1-1v-26.246a.995.995 0 0 0-.374-.78l-7.16-5.754a1.002 1.002 0 0 0-.627-.22Z" fill="#fff"></path><path d="M376.508 177.652h-16a1 1 0 0 1 0-2h16a1 1 0 0 1 0 2ZM376.508 183.652h-16a1 1 0 0 1 0-2h16a1 1 0 0 1 0 2ZM376.508 189.652h-16a1 1 0 0 1 0-2h16a1 1 0 0 1 0 2Z" fill="#fff"></path><circle cx="553.508" cy="176.652" r="30" fill="#337bcf"></circle><path d="M567.507 187.652h-28a3.003 3.003 0 0 1-3-3v-16a3.003 3.003 0 0 1 3-3h28a3.003 3.003 0 0 1 3 3v16a3.003 3.003 0 0 1-3 3Zm-28-20a1.001 1.001 0 0 0-1 1v16a1.001 1.001 0 0 0 1 1h28a1.001 1.001 0 0 0 1-1v-16a1.001 1.001 0 0 0-1-1Z" fill="#fff"></path><path d="M553.507 179.29a3.003 3.003 0 0 1-1.59-.452l-14.94-9.338a1 1 0 0 1 1.06-1.696l14.941 9.337a1.006 1.006 0 0 0 1.06 0l14.94-9.337a1 1 0 0 1 1.06 1.696l-14.94 9.338a3.004 3.004 0 0 1-1.59.452Z" fill="#fff"></path><circle cx="184.508" cy="295.652" r="30" fill="#337bcf"></circle><path d="M198.508 306.652h-28a3.003 3.003 0 0 1-3-3v-16a3.003 3.003 0 0 1 3-3h28a3.003 3.003 0 0 1 3 3v16a3.003 3.003 0 0 1-3 3Zm-28-20a1.001 1.001 0 0 0-1 1v16a1.001 1.001 0 0 0 1 1h28a1.001 1.001 0 0 0 1-1v-16a1.001 1.001 0 0 0-1-1Z" fill="#fff"></path><path d="M194.07 306.652h-20.124a2 2 0 0 1-1.732-3l6.062-10.5a2 2 0 0 1 3.464 0l3.915 6.781 2.268-3.928a2 2 0 0 1 3.464 0l4.415 7.647a2 2 0 0 1-1.732 3Zm0-2-4.415-7.647-3.134 5.428a1 1 0 0 1-.866.5 1 1 0 0 1-.866-.5l-4.781-8.28-6.062 10.5Z" fill="#fff"></path><circle cx="195.508" cy="290.652" r="2" fill="#fff"></circle><circle cx="370.508" cy="292.652" r="30" fill="#337bcf"></circle><path d="M370.508 293.152a9 9 0 1 1 9-9 9.01 9.01 0 0 1-9 9Zm0-16a7 7 0 1 0 7 7 7.008 7.008 0 0 0-7-7ZM378.508 310.152h-16a3.504 3.504 0 0 1-3.5-3.5 11.5 11.5 0 1 1 23 0 3.504 3.504 0 0 1-3.5 3.5Zm-8-13a9.51 9.51 0 0 0-9.5 9.5 1.502 1.502 0 0 0 1.5 1.5h16a1.502 1.502 0 0 0 1.5-1.5 9.51 9.51 0 0 0-9.5-9.5Z" fill="#fff"></path><path fill="#ffb8b8" d="M80.937 471.198h12.26l5.832-47.288-18.094.001.002 47.287z"></path><path d="m116.84 482.58-38.53.003v-14.887l23.643-.001a14.887 14.887 0 0 1 14.888 14.886Z" fill="#2f2e41"></path><path fill="#ffb8b8" d="M34.937 471.198h12.26l5.832-47.288-18.094.001.002 47.287z"></path><path d="m70.84 482.58-38.53.003v-14.887l23.643-.001a14.887 14.887 0 0 1 14.888 14.886Z" fill="#2f2e41"></path><path d="M36.434 330.36a10.743 10.743 0 0 0 2.062-16.343l8.073-114.558-23.253 2.255-.639 112.187a10.8 10.8 0 0 0 13.757 16.459Z" fill="#ffb8b8"></path><path d="M81.302 447.381a4.517 4.517 0 0 1-4.468-3.965l-7.127-59.603a3.5 3.5 0 0 0-6.932-.128l-8.977 57.068a4.479 4.479 0 0 1-4.446 3.8h-14.55a4.5 4.5 0 0 1-4.5-4.534l6.945-126.534a4.474 4.474 0 0 1 3.853-4.42l53.994-7.838a4.501 4.501 0 0 1 5.146 4.486l-.942 136.556a4.499 4.499 0 0 1-4.286 4.463l-13.496.644q-.107.005-.214.005Z" fill="#2f2e41"></path><path d="M53.31 318.265a45.085 45.085 0 0 1-15.226-2.71 4.465 4.465 0 0 1-2.918-4.006c-.466-10.336-3.191-63.544-11.125-95.999a33.178 33.178 0 0 1 12.637-34.573q.64-.46 1.305-.903a32.306 32.306 0 0 1 31.396-2.461 33.22 33.22 0 0 1 19.363 25.957l12.938 96.05a4.478 4.478 0 0 1-.932 3.402 4.418 4.418 0 0 1-3.053 1.673c-4.483.447-13.78 2.184-25.68 8.796a38.125 38.125 0 0 1-18.705 4.774Z" fill="#3f3d56"></path><path d="m37.493 238.647-21.29-5.773a4.505 4.505 0 0 1-3.166-5.52l7.484-27.606a12.399 12.399 0 0 1 24.347 3.927l-1.704 30.876a4.5 4.5 0 0 1-5.671 4.096Z" fill="#3f3d56"></path><circle cx="61.193" cy="140.01" r="24.561" fill="#ffb8b8"></circle><path d="M150.197 188.265a10.526 10.526 0 0 0-.24 1.64L107 214.687l-10.441-6.011-11.131 14.572 22.337 15.92 49.008-38.662a10.496 10.496 0 1 0-6.576-12.241Z" fill="#ffb8b8"></path><path d="M103.44 215.883 84.936 227.89a4.505 4.505 0 0 1-6.225-1.325l-15.57-23.992a12.399 12.399 0 0 1 19.169-15.516l21.863 21.868a4.5 4.5 0 0 1-.733 6.957Z" fill="#3f3d56"></path><path d="M43.813 159.442c4.582 4.88 13.091 2.26 13.688-4.408a8.056 8.056 0 0 0-.01-1.555c-.308-2.954-2.015-5.635-1.606-8.754a4.59 4.59 0 0 1 .84-2.149c3.651-4.89 12.223 2.187 15.668-2.24 2.113-2.713-.37-6.986 1.251-10.02 2.14-4.003 8.479-2.028 12.454-4.22 4.423-2.44 4.158-9.226 1.247-13.353-3.55-5.034-9.776-7.72-15.924-8.107s-12.252 1.275-17.992 3.511c-6.52 2.542-12.987 6.054-17 11.788-4.88 6.973-5.35 16.348-2.91 24.502 1.485 4.96 6.552 11.019 10.294 15.005Z" fill="#2f2e41"></path><path d="M141 482.652H1a1 1 0 0 1 0-2h140a1 1 0 1 1 0 2Z" fill="#3f3d56"></path></svg>