<svg xmlns="http://www.w3.org/2000/svg" data-name="Layer 1" width="880.16" height="576.272" viewBox="0 0 880.16 576.272" class="featureSvg__8YW" alt="[object Object]"><circle cx="435.555" cy="71.266" r="26.701" fill="#fd6584"></circle><path d="M495.313 58.623a13.235 13.235 0 0 0-11.17-9.29 1.08 1.08 0 0 0-.18 0 1.418 1.418 0 0 0-.22-.05c-8.94-1.16-18.88 1.66-25.57 7.8a23.958 23.958 0 0 0-5.83 8.04 12.917 12.917 0 0 0-10.83-5.28 13.184 13.184 0 0 0-11.8 9.51 1.526 1.526 0 0 0 .69 1.69 6.673 6.673 0 0 0 2.79 1.42c2.21.47 4.44.9 6.67 1.29q6.54 1.14 13.15 1.85 4.365.465 8.75.74c6.04.38 12.11.47 18.16.28 3-.1 5.88-.2 8.62-1.52a12.798 12.798 0 0 0 4.95-4.31 14.548 14.548 0 0 0 1.82-12.17ZM440.383 97.523a13.652 13.652 0 0 0-.56-3.3 13.26 13.26 0 0 0-11.18-9.29.965.965 0 0 0-.17 0 1.887 1.887 0 0 0-.23-.05 33.194 33.194 0 0 0-14.69 1.51c-7.26 2.43-13.63 7.33-16.7 14.33a12.922 12.922 0 0 0-10.84-5.28 13.183 13.183 0 0 0-11.8 9.51 1.555 1.555 0 0 0 .69 1.69 6.733 6.733 0 0 0 2.79 1.42c2.22.47 4.44.9 6.68 1.29q6.54 1.14 13.14 1.85a195.164 195.164 0 0 0 26.92 1.02c2.99-.1 5.88-.2 8.62-1.52a12.77 12.77 0 0 0 4.94-4.31 14.265 14.265 0 0 0 2.39-8.87Z" fill="#e6e6e6"></path><path d="M788.132 421.512a171.855 171.855 0 0 1-7.442 53.772c-.186.633-.41 1.265-.633 1.898H670.502a98.322 98.322 0 0 1 7.406-22.328c9.117-19.35 24.002-35.91 38.701-52.358 20.244-22.663 40.004-45.14 43.13-74.612a169.258 169.258 0 0 1 19.053 39.334 46.231 46.231 0 0 0-15.294 9.377c-1.229 1.154-2.531 2.829-1.898 4.429.595 1.34 2.232 1.786 3.684 2.084 3.498.67 6.996 1.34 10.494 1.972 2.753.558 5.544 1.08 8.335 1.6a182.729 182.729 0 0 1 4.02 34.832Z" fill="#f2f2f2"></path><path d="M880.16 409.455c-17.565 10.68-28.728 27.202-37.845 45.697a46.743 46.743 0 0 0-21.25 11.164c-1.264 1.154-2.567 2.828-1.897 4.428.558 1.34 2.233 1.787 3.684 2.084 3.46.67 6.996 1.34 10.457 1.973-.335.781-.67 1.6-1.005 2.381H716.2a164.174 164.174 0 0 1 17.453-19.946c1.376-1.377 2.79-2.68 4.242-4.019a173.653 173.653 0 0 1 50.238-31.705 176.734 176.734 0 0 1 92.027-12.057Z" fill="#f2f2f2"></path><path d="M735.55 477.182H632.174a167.932 167.932 0 0 1 .149-24.858c4.13-51.094 31.928-99.768 73.867-129.24-5.358 19.09-2.605 38.068 2.977 57.121-.78.26-1.562.484-2.27.782a46.236 46.236 0 0 0-15.294 9.377c-1.228 1.154-2.53 2.829-1.898 4.429.558 1.34 2.233 1.786 3.684 2.084 3.498.67 6.996 1.34 10.457 1.972 2.791.558 5.582 1.08 8.373 1.637 1.302.224 2.605.484 3.907.744.186.447.298.856.484 1.266 6.55 18.048 13.694 36.245 17.044 54.74a127.778 127.778 0 0 1 1.711 14.03c.112 1.972.187 3.944.187 5.916ZM172.133 421.512a171.855 171.855 0 0 1-7.443 53.772c-.186.633-.41 1.265-.633 1.898H54.502a98.322 98.322 0 0 1 7.406-22.328c9.117-19.35 24.002-35.91 38.701-52.358 20.244-22.663 40.004-45.14 43.13-74.612a169.258 169.258 0 0 1 19.053 39.334 46.231 46.231 0 0 0-15.294 9.377c-1.229 1.154-2.531 2.829-1.898 4.429.595 1.34 2.232 1.786 3.684 2.084 3.498.67 6.996 1.34 10.494 1.972 2.753.558 5.544 1.08 8.335 1.6a182.729 182.729 0 0 1 4.02 34.832Z" fill="#f2f2f2"></path><path d="M264.16 409.455c-17.565 10.68-28.728 27.202-37.845 45.697a46.743 46.743 0 0 0-21.25 11.164c-1.264 1.154-2.567 2.828-1.897 4.428.558 1.34 2.233 1.787 3.684 2.084 3.46.67 6.996 1.34 10.457 1.973-.335.781-.67 1.6-1.005 2.381H100.2a164.174 164.174 0 0 1 17.453-19.946c1.376-1.377 2.79-2.68 4.242-4.019a173.653 173.653 0 0 1 50.237-31.705 176.734 176.734 0 0 1 92.028-12.057Z" fill="#f2f2f2"></path><path d="M119.55 477.182H16.174a167.932 167.932 0 0 1 .149-24.858c4.13-51.094 31.928-99.768 73.867-129.24-5.358 19.09-2.605 38.068 2.977 57.121-.78.26-1.562.484-2.27.782a46.236 46.236 0 0 0-15.294 9.377c-1.228 1.154-2.53 2.829-1.898 4.429.558 1.34 2.233 1.786 3.684 2.084 3.498.67 6.996 1.34 10.457 1.972 2.791.558 5.582 1.08 8.373 1.637 1.302.224 2.605.484 3.907.744.186.447.298.856.484 1.266 6.55 18.048 13.694 36.245 17.044 54.74a127.778 127.778 0 0 1 1.711 14.03c.112 1.972.187 3.944.187 5.916Z" fill="#f2f2f2"></path><path d="m504.41 433.78 92.37 8.2.99.09V47.93l-.99-.69a288.323 288.323 0 0 0-62.01-32.94l-4.72 65.1-.43 5.96-4.67 64.56-1.44 19.86-18.93 261.7ZM275.98 40.59c-.66.42-1.32.84-1.98 1.28v400.2l1.98-.18 91.37-8.11-.17-2.3-18.93-261.7-1.44-19.86-4.67-64.56-.43-5.96-4.95-68.27a287.687 287.687 0 0 0-60.78 29.46Z" fill="#e6e6e6"></path><path d="M274 41.87c-1.33.86-2.66 1.74-3.97 2.63v403.03c0 10.07 5.97 18.51 13.95 20.66a15.249 15.249 0 0 0 4 .53h296.8a15.118 15.118 0 0 0 3.99-.53 17.06 17.06 0 0 0 7.78-4.66 22.919 22.919 0 0 0 6.18-16V51.51c-1.64-1.21-3.29-2.41-4.96-3.58l-.99-.69v400.29a16.108 16.108 0 0 1-.46 3.85c-1.41 5.95-6.06 10.31-11.54 10.31h-296.8c-6.62 0-12-6.35-12-14.16V40.59c-.66.42-1.32.84-1.98 1.28Z" fill="#e6e6e6"></path><path fill="#e6e6e6" d="M273.003 79.404h326.752v5.959H273.003z"></path><path d="M499.68 3.39c-1.98-.49-3.96-.95-5.96-1.38v161.81h5.96ZM379.04 0c-1.99.37-3.98.75-5.96 1.16v162.66h5.96ZM208.94 458.29a26.711 26.711 0 0 0 1.93 9.98 25.54 25.54 0 0 0 1.75 3.56 27.096 27.096 0 0 0 3.02 4.18 26.76 26.76 0 0 0 20.12 9.11h391.31a26.82 26.82 0 0 0 0-53.64H235.76a26.846 26.846 0 0 0-26.82 26.81Z" fill="#e6e6e6"></path><path fill="#e6e6e6" d="M597.768 169.782H273.002V149.92h324.766z"></path><path d="M449.29 154.885H421.48a10.925 10.925 0 0 1 10.925-10.925h5.959a10.925 10.925 0 0 1 10.925 10.925Z" fill="#e6e6e6"></path><path d="M0 473.61a289.004 289.004 0 0 0 28.12 28.95H834.7a289.004 289.004 0 0 0 28.12-28.95Z" fill="#3f3d56"></path><path d="M396.69 376.8v102.56h71.85V376.8a3.448 3.448 0 0 0-2.43-3.3 3.175 3.175 0 0 0-1.03-.16h-64.92a3.463 3.463 0 0 0-3.47 3.46Zm28.04 35.24a7.67 7.67 0 0 1 15.34 0v11.9a7.67 7.67 0 0 1-15.34 0Z" fill="#2f2e41"></path><path d="M396.47 476.08v9.89a1.946 1.946 0 0 0 1.93 1.94h68.43a1.94 1.94 0 0 0 1.93-1.94v-9.89ZM283.66 222.28v187.26a9.007 9.007 0 0 0 9 9h277.5a9.007 9.007 0 0 0 9-9V222.28a9.011 9.011 0 0 0-9-8.99h-277.5a9.012 9.012 0 0 0-9 8.99Z" fill="#3f3d56"></path><path d="M290.17 224.61v182.62a4.818 4.818 0 0 0 4.81 4.81h272.87a4.818 4.818 0 0 0 4.81-4.81V224.61a4.82 4.82 0 0 0-4.81-4.82H294.98a4.82 4.82 0 0 0-4.81 4.82Z" fill="#337bcf"></path><path d="M345.81 490.24a2.948 2.948 0 0 0 2.32 1.11h162.34a2.987 2.987 0 0 0 2.92-3.6l-2.52-11.97a2.993 2.993 0 0 0-1.86-2.17 2.895 2.895 0 0 0-1.06-.2H350.64a2.894 2.894 0 0 0-1.06.2 2.992 2.992 0 0 0-1.86 2.17l-2.52 11.97a2.985 2.985 0 0 0 .61 2.49Z" fill="#2f2e41"></path><rect x="661.717" y="637.43" width="5" height="3" rx="0.488" transform="rotate(-180 584.257 557.998)" fill="#3f3d56"></rect><rect x="651.717" y="637.43" width="5" height="3" rx="0.488" transform="rotate(-180 574.257 557.998)" fill="#3f3d56"></rect><rect x="641.717" y="637.43" width="5" height="3" rx="0.488" transform="rotate(-180 564.257 557.998)" fill="#3f3d56"></rect><rect x="631.717" y="637.43" width="5" height="3" rx="0.488" transform="rotate(-180 554.257 557.998)" fill="#3f3d56"></rect><rect x="621.717" y="637.43" width="5" height="3" rx="0.488" transform="rotate(-180 544.257 557.998)" fill="#3f3d56"></rect><rect x="611.717" y="637.43" width="5" height="3" rx="0.488" transform="rotate(-180 534.257 557.998)" fill="#3f3d56"></rect><rect x="601.717" y="637.43" width="5" height="3" rx="0.488" transform="rotate(-180 524.257 557.998)" fill="#3f3d56"></rect><rect x="591.717" y="637.43" width="5" height="3" rx="0.488" transform="rotate(-180 514.257 557.998)" fill="#3f3d56"></rect><rect x="581.717" y="637.43" width="5" height="3" rx="0.488" transform="rotate(-180 504.257 557.998)" fill="#3f3d56"></rect><rect x="571.717" y="637.43" width="5" height="3" rx="0.488" transform="rotate(-180 494.257 557.998)" fill="#3f3d56"></rect><rect x="561.717" y="637.43" width="5" height="3" rx="0.488" transform="rotate(-180 484.257 557.998)" fill="#3f3d56"></rect><rect x="551.717" y="637.43" width="5" height="3" rx="0.488" transform="rotate(-180 474.257 557.998)" fill="#3f3d56"></rect><rect x="541.717" y="637.43" width="5" height="3" rx="0.488" transform="rotate(-180 464.257 557.998)" fill="#3f3d56"></rect><rect x="531.717" y="637.43" width="5" height="3" rx="0.488" transform="rotate(-180 454.257 557.998)" fill="#3f3d56"></rect><rect x="521.717" y="637.43" width="5" height="3" rx="0.488" transform="rotate(-180 444.257 557.998)" fill="#3f3d56"></rect><rect x="511.717" y="637.43" width="5" height="3" rx="0.488" transform="rotate(-180 434.257 557.998)" fill="#3f3d56"></rect><rect x="661.835" y="642.43" width="5" height="3" rx="0.488" transform="rotate(-180 584.375 562.998)" fill="#3f3d56"></rect><rect x="651.835" y="642.43" width="5" height="3" rx="0.488" transform="rotate(-180 574.375 562.998)" fill="#3f3d56"></rect><rect x="641.835" y="642.43" width="5" height="3" rx="0.488" transform="rotate(-180 564.375 562.998)" fill="#3f3d56"></rect><rect x="631.835" y="642.43" width="5" height="3" rx="0.488" transform="rotate(-180 554.375 562.998)" fill="#3f3d56"></rect><rect x="621.835" y="642.43" width="5" height="3" rx="0.488" transform="rotate(-180 544.375 562.998)" fill="#3f3d56"></rect><rect x="611.835" y="642.43" width="5" height="3" rx="0.488" transform="rotate(-180 534.375 562.998)" fill="#3f3d56"></rect><rect x="601.835" y="642.43" width="5" height="3" rx="0.488" transform="rotate(-180 524.375 562.998)" fill="#3f3d56"></rect><rect x="591.835" y="642.43" width="5" height="3" rx="0.488" transform="rotate(-180 514.375 562.998)" fill="#3f3d56"></rect><rect x="581.835" y="642.43" width="5" height="3" rx="0.488" transform="rotate(-180 504.375 562.998)" fill="#3f3d56"></rect><rect x="571.835" y="642.43" width="5" height="3" rx="0.488" transform="rotate(-180 494.375 562.998)" fill="#3f3d56"></rect><rect x="561.835" y="642.43" width="5" height="3" rx="0.488" transform="rotate(-180 484.375 562.998)" fill="#3f3d56"></rect><rect x="551.835" y="642.43" width="5" height="3" rx="0.488" transform="rotate(-180 474.375 562.998)" fill="#3f3d56"></rect><rect x="541.835" y="642.43" width="5" height="3" rx="0.488" transform="rotate(-180 464.375 562.998)" fill="#3f3d56"></rect><rect x="531.835" y="642.43" width="5" height="3" rx="0.488" transform="rotate(-180 454.375 562.998)" fill="#3f3d56"></rect><rect x="521.835" y="642.43" width="5" height="3" rx="0.488" transform="rotate(-180 444.375 562.998)" fill="#3f3d56"></rect><rect x="511.835" y="642.43" width="5" height="3" rx="0.488" transform="rotate(-180 434.375 562.998)" fill="#3f3d56"></rect><rect x="578.835" y="648.43" width="40" height="3" rx="0.488" transform="rotate(-180 518.875 568.998)" fill="#3f3d56"></rect><path d="M308.692 244.947h255.323a1.016 1.016 0 0 0 0-2.031H308.692a1.016 1.016 0 0 0 0 2.03Z" fill="#3f3d56"></path><ellipse cx="546.635" cy="231.649" rx="5.95" ry="6.083" fill="#3f3d56"></ellipse><ellipse cx="526.079" cy="231.649" rx="5.95" ry="6.083" fill="#3f3d56"></ellipse><ellipse cx="505.523" cy="231.649" rx="5.95" ry="6.083" fill="#3f3d56"></ellipse><path d="M319.98 228.18a1.095 1.095 0 0 0 1.09 1.1h14.6a1.105 1.105 0 0 0 0-2.21h-14.6a1.103 1.103 0 0 0-1.09 1.11ZM319.98 232.33a1.095 1.095 0 0 0 1.09 1.1h14.6a1.105 1.105 0 0 0 0-2.21h-14.6a1.103 1.103 0 0 0-1.09 1.11ZM319.98 236.47a1.103 1.103 0 0 0 1.09 1.11h14.6a1.105 1.105 0 0 0 0-2.21h-14.6a1.095 1.095 0 0 0-1.09 1.1Z" fill="#3f3d56"></path><rect x="316.366" y="268.543" width="11.006" height="5.76" rx="2.88" fill="#e6e6e6"></rect><rect x="376.366" y="268.543" width="11.006" height="5.76" rx="2.88" fill="#e6e6e6"></rect><rect x="393.366" y="268.543" width="11.006" height="5.76" rx="2.88" fill="#e6e6e6"></rect><rect x="332.686" y="268.063" width="38.366" height="5.76" rx="2.88" fill="#e6e6e6"></rect><rect x="412.686" y="268.063" width="38.366" height="5.76" rx="2.88" fill="#e6e6e6"></rect><rect x="332.366" y="281.543" width="11.006" height="5.76" rx="2.88" fill="#e6e6e6"></rect><rect x="392.366" y="281.543" width="11.006" height="5.76" rx="2.88" fill="#e6e6e6"></rect><rect x="409.366" y="281.543" width="11.006" height="5.76" rx="2.88" fill="#e6e6e6"></rect><rect x="348.686" y="281.063" width="38.366" height="5.76" rx="2.88" fill="#e6e6e6"></rect><rect x="428.686" y="281.063" width="38.366" height="5.76" rx="2.88" fill="#e6e6e6"></rect><rect x="348.366" y="294.543" width="11.006" height="5.76" rx="2.88" fill="#e6e6e6"></rect><rect x="408.366" y="294.543" width="11.006" height="5.76" rx="2.88" fill="#e6e6e6"></rect><rect x="425.366" y="294.543" width="11.006" height="5.76" rx="2.88" fill="#e6e6e6"></rect><rect x="364.686" y="294.063" width="38.366" height="5.76" rx="2.88" fill="#e6e6e6"></rect><rect x="444.686" y="294.063" width="38.366" height="5.76" rx="2.88" fill="#e6e6e6"></rect><rect x="364.366" y="307.543" width="11.006" height="5.76" rx="2.88" fill="#e6e6e6"></rect><rect x="424.366" y="307.543" width="11.006" height="5.76" rx="2.88" fill="#e6e6e6"></rect><rect x="441.366" y="307.543" width="11.006" height="5.76" rx="2.88" fill="#e6e6e6"></rect><rect x="380.686" y="307.063" width="38.366" height="5.76" rx="2.88" fill="#e6e6e6"></rect><rect x="376.366" y="359.237" width="11.006" height="5.76" rx="2.88" fill="#e6e6e6"></rect><rect x="393.366" y="359.237" width="11.006" height="5.76" rx="2.88" fill="#e6e6e6"></rect><rect x="412.686" y="359.717" width="38.366" height="5.76" rx="2.88" fill="#e6e6e6"></rect><rect x="316.366" y="359.237" width="11.006" height="5.76" rx="2.88" fill="#e6e6e6"></rect><rect x="332.686" y="359.717" width="38.366" height="5.76" rx="2.88" fill="#e6e6e6"></rect><rect x="332.366" y="346.237" width="11.006" height="5.76" rx="2.88" fill="#e6e6e6"></rect><rect x="392.366" y="346.237" width="11.006" height="5.76" rx="2.88" fill="#e6e6e6"></rect><rect x="409.366" y="346.237" width="11.006" height="5.76" rx="2.88" fill="#e6e6e6"></rect><rect x="348.686" y="346.717" width="38.366" height="5.76" rx="2.88" fill="#e6e6e6"></rect><rect x="348.366" y="333.237" width="11.006" height="5.76" rx="2.88" fill="#e6e6e6"></rect><rect x="408.366" y="333.237" width="11.006" height="5.76" rx="2.88" fill="#e6e6e6"></rect><rect x="425.366" y="333.237" width="11.006" height="5.76" rx="2.88" fill="#e6e6e6"></rect><rect x="364.686" y="333.717" width="38.366" height="5.76" rx="2.88" fill="#e6e6e6"></rect><rect x="364.366" y="320.237" width="11.006" height="5.76" rx="2.88" fill="#e6e6e6"></rect><rect x="424.366" y="320.237" width="11.006" height="5.76" rx="2.88" fill="#e6e6e6"></rect><rect x="441.366" y="320.237" width="11.006" height="5.76" rx="2.88" fill="#e6e6e6"></rect><rect x="380.686" y="320.717" width="38.366" height="5.76" rx="2.88" fill="#e6e6e6"></rect><path d="M349.912 545.952c-.22.11-.44.22-.66.32q-2.085 1.035-4.2 2.04-6.33 3.015-12.82 5.73a285.483 285.483 0 0 1-34.97 12.03c-2-12.47-3.94-41.88-5.8-63.51-.35-4.07-.7-7.86-1.05-11.21a97.155 97.155 0 0 0-1.89-13.08 4.36 4.36 0 0 0-.39-.97c.19 1.73.39 6.89.58 14.05.1 3.35.19 7.14.29 11.21.47 20.82.96 49.15 1.45 65.28-1.39.34-2.79.68-4.19 1-.88.21-1.77.41-2.66.6-1.08.24-2.16.48-3.24.7q-1.695.36-3.39.69a290.072 290.072 0 0 1-56.06 5.44c-1.25 0-2.49-.01-3.74-.02-.38 0-.76-.01-1.15-.02-1.1-.02-2.24-.04-3.4-.07a288.591 288.591 0 0 1-65.84-9.49l.87-64.11.15-11.21.06-4.25a15.182 15.182 0 0 0-.88 4.25c-.35 2.73-.71 6.6-1.07 11.21-1.37 17.76-2.78 46.41-4.24 62.71-17.29-4.92-29.93-9.41-45.73-17.31-.61-.3-1.23-.61-1.84-.92.11-.77.23-1.54.34-2.33 1.79-12.44-.32-28.63 1.66-42.15 1.51-10.43 3.07-20.45 4.64-28.95 1.9-10.23 3.83-18.27 5.74-22.18 2.2-4.51 4.4-8.95 6.53-13.2l2.71-5.39c.48-.95.96-1.89 1.43-2.81 2.14-4.19 4.16-8.06 6.01-11.49 1.3-2.41 2.5-4.59 3.6-6.5 1.29-2.25 2.43-4.11 3.37-5.52a55.306 55.306 0 0 1 29.28-22.21l.3-.08.29.12.33.15 19.06-6.97 8.51-20.49 43.71-2.69 7.06 5.37 3.61 2.75 3.85 2.93 7.08 5.39 2.01.62 2.99.92 20.45 6.28.21-.09.3.08a55.168 55.168 0 0 1 27.36 19.5c.68.88 1.31 1.79 1.92 2.71 1.66 2.46 3.9 6.35 6.54 11.23 1.09 2.01 2.24 4.19 3.45 6.5.73 1.39 7.03 21.05 13.16 41.13 5.73 18.8 11.31 37.97 12.04 42.89.13.91.27 1.83.4 2.74.83 5.69 1.65 11.42 2.44 17.01 1.17 8.29 2.31 16.29 3.4 23.44l.03.2Z" fill="#3f3d56"></path><path opacity="0.2" d="m303.59 473.566-8.497-32.792-7.503 28.296 16 4.496z"></path><path d="M15.83 473.186a6.416 6.416 0 0 0 6.182 4.33l26.492-.681a6.328 6.328 0 0 0 5.981-4.657l3.749-40.087a9.794 9.794 0 0 0 4.238.87 9.661 9.661 0 0 0-.485-19.316 8.184 8.184 0 0 0-1.736.18 6.548 6.548 0 0 0-4.874-2.102l-40.75 1.052a5.854 5.854 0 0 0-1.006.125 6.365 6.365 0 0 0-4.873 8.264Zm43.173-43.817 2.667-9.553a6.506 6.506 0 0 0 .02-3.374c.13 0 .244-.062.374-.062a6.91 6.91 0 0 1 .323 13.817 6.505 6.505 0 0 1-3.384-.828Z" fill="#2f2e41"></path><path d="M13.621 412.9c.868 4.964 10.63 8.453 22.366 7.847 10.793-.497 19.617-4.287 21.234-8.779a6.025 6.025 0 0 0-1.844-.245l-40.75 1.052a5.854 5.854 0 0 0-1.006.125Z" fill="#3f3d56"></path><path d="M38.138 451.158a.497.497 0 0 0 .15-.067l5.754-3.766a.5.5 0 0 0 0-.836l-5.98-3.916a.5.5 0 1 0-.547.835l5.34 3.499-5.113 3.348a.5.5 0 0 0 .396.903ZM29.051 451.577a.5.5 0 0 0 .126-.919l-5.303-3.04L29 443.81a.5.5 0 1 0-.596-.803l-5.739 4.263a.5.5 0 0 0 .05.835l5.965 3.42a.5.5 0 0 0 .371.05ZM37.566 454.458a.482.482 0 0 0 .137-.058.5.5 0 0 0 .167-.687l-8.155-13.409a.5.5 0 0 0-.855.52l8.156 13.41a.5.5 0 0 0 .55.224Z" fill="#337bcf"></path><path d="M785.15 547.04c-.61.31-1.23.62-1.84.92-15.8 7.9-28.44 12.39-45.73 17.31-1.46-16.3-2.87-44.95-4.24-62.71-.36-4.61-.72-8.48-1.07-11.21a15.182 15.182 0 0 0-.88-4.25l.06 4.25.15 11.21.87 64.11a288.588 288.588 0 0 1-65.84 9.49c-1.16.03-2.3.05-3.4.07-.39.01-.77.02-1.15.02-1.25.01-2.49.02-3.74.02a289.271 289.271 0 0 1-69.54-8.43c.49-16.13.98-44.46 1.449-65.28.1-4.07.19-7.86.29-11.21.19-7.16.39-12.32.58-14.05a4.362 4.362 0 0 0-.39.97 97.154 97.154 0 0 0-1.89 13.08c-.35 3.35-.7 7.14-1.05 11.21-1.86 21.63-3.8 51.04-5.8 63.51a285.473 285.473 0 0 1-34.97-12.03q-9-3.75-17.68-8.09c1.1-7.2 2.25-15.27 3.43-23.64.92-6.49 1.87-13.16 2.84-19.75 1.5-10.18 52.46-120.11 64.47-123.96l.3-.08.21.09 20.45-6.28 2.99-.92 2.01-.62 7.08-5.39 3.85-2.93 3.61-2.75 7.06-5.37 43.71 2.69 8.51 20.49 19.06 6.97.33-.15.29-.12.3.08a55.306 55.306 0 0 1 29.28 22.21c.94 1.41 2.08 3.27 3.37 5.52 1.1 1.91 2.3 4.09 3.6 6.5 1.85 3.43 3.87 7.3 6.01 11.49.47.92.95 1.86 1.43 2.81q1.335 2.64 2.71 5.39c2.13 4.25 4.33 8.69 6.53 13.2 1.91 3.91 3.84 11.95 5.74 22.18 1.57 8.5 3.13 18.52 4.64 28.95 1.98 13.52-.13 29.71 1.66 42.15.11.79.23 1.56.34 2.33Z" fill="#3f3d56"></path><circle cx="656.954" cy="296.158" r="50.836" fill="#ffb6b6"></circle><path opacity="0.2" d="m575.659 473.566 8.497-32.792 7.503 28.296-16 4.496z"></path><path d="M801.77 452.2c-3.04 41.88.11 60.32-16.67 94.85a286.16 286.16 0 0 1-47.52 18.22q-2.55.72-5.11 1.4a288.588 288.588 0 0 1-65.84 9.49c-1.16.03-2.3.05-3.4.07-.39.01-.77.02-1.15.02-1.25.01-2.49.02-3.74.02a289.271 289.271 0 0 1-69.54-8.43q-3.42-.84-6.81-1.77a285.473 285.473 0 0 1-34.97-12.03q-9-3.75-17.68-8.09c-1.31-.66-2.62-1.32-3.91-2-6.63-11.66-10.4-25.84-10.48-42.88 4.59-29.36 276.68-74.19 286.82-48.87Z" fill="#2f2e41"></path><path d="M801.761 459.372c.156-2.593.33-5.27.532-8.06-10.14-25.32-282.23 19.51-286.82 48.87.012 2.692.127 5.304.32 7.855 11.116-28.978 269.606-71.586 285.968-48.665Z" opacity="0.2"></path><path d="m508.182 454.175 22.334-11.167-18.611-50.25L507 367.416a19.161 19.161 0 0 0-31.282-10.908 19.161 19.161 0 0 0-2.493 26.519l18.207 22.759Z" fill="#ffb6b6"></path><path d="m530.516 433.703-29.778 14.889 22.598 70.809a30.977 30.977 0 0 0 22.336 20.716 30.977 30.977 0 0 0 33.738-14.197l59.924-102.714a31.62 31.62 0 0 0-10.195-42.982 31.62 31.62 0 0 0-45.296 12.765l-36.576 77.937Z" fill="#3f3d56"></path><circle cx="209.508" cy="287.552" r="55.935" fill="#a0616a"></circle><path d="M154.244 249.006c4.548-6.13 11.085-10.488 16.085-16.255 2.744-3.164 5.021-6.75 8.106-9.582 5.73-5.263 13.744-7.42 21.52-7.688a54.305 54.305 0 0 1 44.331 21.038l12.194-7.149 4.817 12.68a7.39 7.39 0 0 1 11.264 9.248c.967-2.99 5.399-3.624 7.842-1.649 2.444 1.975 3.098 5.488 2.7 8.604a17.32 17.32 0 0 1-13.065 14.326c-5.305 1.182-11.478-.06-15.723 3.333-3.404 2.72-4.431 7.671-7.904 10.3-4.28 3.241-10.33 1.743-15.65 2.459-9.308 1.253-16.678 10.773-15.56 20.098-.842-2.943-1.727-5.97-3.638-8.36-1.912-2.39-5.131-4.007-8.063-3.128-4.846 1.452-5.638 8.057-4.464 12.978 3.115 13.05 14.92 34.144 14.92 34.144-15.328 6.046-33.59.329-45.416-11.144-11.826-11.473-17.985-27.719-20.668-43.976-2.276-13.786-1.953-29.056 6.372-40.277ZM720.662 324.182c10.642-24.398 4.613-46.85-8.36-58.76v-.01c-5.1-11.43-11.88-20.25-19.64-22.32-3.75-2.41-7.39-5.24-11.43-6.68a14.887 14.887 0 0 0-11.68.53l-2.06-.55c-1.75-4.47-3.8-4.56-6.08-1.62-8.78-4.09-16.69-5.92-23.73-5.92-22.96 0-36.54 19.44-40.14 42.94l19.19 5.11 6.67-10.63-3.08 11.59 10.59 2.81c16.12 20.99-3.17 69.41-27.62 96.35q8.73-2.415 17.39-4.08l20.98-30.76-13 28c6.75-.99 15.36-.04 24.77 1.87 3.17-4.14 4.84-9.66 3.2-14.58a55.745 55.745 0 0 1 5.48 16.53c19.86 4.85 46.95 7.34 61.55 9.18 11.796-3.85 11.828-47.34-3-59Z" fill="#2f2e41"></path><path d="M727.585 241.19c7.795 17.454-7.933 24.96-22.341 24.749-13.02-.192-24.084-9.338-24.748-22.341a23.576 23.576 0 0 1 22.341-24.749c13.003-.664 19.439 10.453 24.748 22.342Z" fill="#2f2e41"></path><path d="m365.982 525.309-12.84-21.416 42.692-32.388 17.75-18.74a19.161 19.161 0 0 1 32.244 7.603 19.161 19.161 0 0 1-12.142 23.706l-27.582 9.417Z" fill="#a0616a"></path><path d="m375.262 524.602-19.99 16.66-5.39 4.49-.63.52q-2.085 1.035-4.2 2.04-6.33 3.015-12.82 5.73a285.483 285.483 0 0 1-34.97 12.03q-3.39.93-6.81 1.77c-1.39.34-2.79.68-4.19 1-.88.21-1.77.41-2.66.6-1.08.24-2.16.48-3.24.7q-1.695.36-3.39.69a30.963 30.963 0 0 1-9.62-22.44c0-.27 0-.55.01-.83l3.21-82.33 1.42-36.49a31.618 31.618 0 0 1 31.69-30.78c.96 0 1.91.05 2.85.14.68.88 1.31 1.79 1.92 2.71 1.66 2.46 3.9 6.35 6.54 11.23 1.09 2.01 2.24 4.19 3.45 6.5.73 1.39 7.03 21.05 13.16 41.13l-2.7 20.97-4.88 37.8 20.02-13.14 14.1-9.26 1.67 2.79 4.35 7.26 8.4 14Z" fill="#3f3d56"></path><path d="M364.302 501.072c-.01 1.7-.05 3.37-.14 5.02a97.248 97.248 0 0 1-1.58 13.56 79.144 79.144 0 0 1-7.31 21.61c-.46.91-.95 1.81-1.45 2.69-1.29.68-2.6 1.34-3.91 2-.22.11-.44.22-.66.32q-8.355 4.155-17.02 7.77a285.483 285.483 0 0 1-34.97 12.03q-3.39.93-6.81 1.77-6.675 1.65-13.48 2.99a290.072 290.072 0 0 1-56.06 5.44c-1.25 0-2.49-.01-3.74-.02-.38 0-.76-.01-1.15-.02-1.1-.02-2.24-.04-3.4-.07a288.591 288.591 0 0 1-65.84-9.49q-2.565-.675-5.11-1.4a286.165 286.165 0 0 1-47.52-18.22c-16.78-34.53-13.63-52.97-16.67-94.85 6.24-15.59 111.81-4.58 193.09 13.03 22.06 4.78 42.32 10.05 58.33 15.41 16.54 5.53 28.53 11.15 33.23 16.43a7.937 7.937 0 0 1 2.17 4Z" fill="#2f2e41"></path><path d="M77.488 459.372c-.155-2.593-.329-5.27-.531-8.06 10.14-25.32 282.23 19.51 286.82 48.87a110.45 110.45 0 0 1-.322 7.855C352.34 479.059 93.851 436.45 77.488 459.372Z" opacity="0.2"></path></svg>